<svg xmlns="http://www.w3.org/2000/svg" xmlns:xlink="http://www.w3.org/1999/xlink" width="437" height="803.461" viewBox="0 0 437 803.461">
  <defs>
    <linearGradient id="linear-gradient" x1="0.5" x2="0.5" y2="1" gradientUnits="objectBoundingBox">
      <stop offset="0" stop-color="#fffeeb"/>
      <stop offset="1" stop-color="#fffcd9"/>
    </linearGradient>
    <filter id="METAL" x="0" y="0" width="437" height="803.461" filterUnits="userSpaceOnUse">
      <feOffset input="SourceAlpha"/>
      <feGaussianBlur stdDeviation="12" result="blur"/>
      <feFlood flood-opacity="0.149"/>
      <feComposite operator="in" in2="blur"/>
      <feComposite in="SourceGraphic"/>
    </filter>
  </defs>
  <g id="Rückseite" transform="translate(-33 -26.539)">
    <g transform="matrix(1, 0, 0, 1, 33, 26.54)" filter="url(#METAL)">
      <path id="METAL-2" data-name="METAL" d="M40,0H325c22.091,0,40,17.4,40,38.856V692.605c0,21.459-17.909,38.856-40,38.856H40c-22.091,0-40-17.4-40-38.856V38.856C0,17.4,17.909,0,40,0Z" transform="translate(36 36)" fill="url(#linear-gradient)"/>
    </g>
    <g id="Rechteck_78" data-name="Rechteck 78" transform="translate(80 73)" fill="#525252" stroke="#707070" stroke-width="1">
      <rect width="344" height="710" rx="30" stroke="none"/>
      <rect x="0.5" y="0.5" width="343" height="709" rx="29.5" fill="none"/>
    </g>
    <g id="Schrammel_Schriftzug" data-name="Schrammel Schriftzug" transform="translate(191.99 45.269)">
      <path id="Pfad_64" data-name="Pfad 64" d="M162.8,349.386a.961.961,0,0,0-.183.861c.108.272.507.481,1.1.246a4.979,4.979,0,0,0,1.971-2.31l.317.4c-.391,1-1.21,2.637-2.3,3.072-.862.343-1.6-.311-1.921-1.127a2.088,2.088,0,0,1,.348-2.294,5.584,5.584,0,0,1,1.825-1.884.468.468,0,0,1,.7.3,2.238,2.238,0,0,1-.583,1.967c-.272.109-.471-.128-.562-.354Z" transform="translate(-119.426 -280.682)" fill="#ffffe5"/>
      <path id="Pfad_65" data-name="Pfad 65" d="M197.187,310.534c.364-.671,1.727-3.317,2.317-3.552a.63.63,0,0,1,.761.328,2.427,2.427,0,0,1-.246,1.1c-.337,1.133-.337,1.133-.283,1.269a.231.231,0,0,0,.317.136c.363-.145.945-1.06,1.217-1.431l.226.436c-.336.607-1.309,2.256-1.9,2.492a.568.568,0,0,1-.734-.391,4.51,4.51,0,0,1,.348-2.557h0c-1.427,2.093-1.483,3.535-1.846,3.68-.408.163-.8-.681-.906-.953a3.647,3.647,0,0,1-.1-2.222c.43-2.747,1.921-5.6,2.329-5.765.181-.072.535-.108.626.119.307.771-1.795,5.92-2.231,6.935l.145.363Z" transform="translate(-150.025 -242.496)" fill="#ffffe5"/>
      <path id="Pfad_66" data-name="Pfad 66" d="M235.3,322.152a8.626,8.626,0,0,1-.8,1.949l-.244-.481a3.372,3.372,0,0,0,.4-1.106c-.227.09-.354.036-.462-.236a2.358,2.358,0,0,1,.756-2.194.21.21,0,0,1,.254.109.9.9,0,0,1,.036.354c.989-.552,1.57-.941,1.761-.859a1.452,1.452,0,0,1,.507.481c.145.363-.028.589-.164.907a2.392,2.392,0,0,0-.356,1.614.378.378,0,0,0,.49.173c.5-.2.89-1.2,1.19-1.631l.253.372c-.21.662-1.037,2.411-1.672,2.664a.91.91,0,0,1-1.115-.555,3.443,3.443,0,0,1,.284-2.321h0Z" transform="translate(-183.468 -257.182)" fill="#ffffe5"/>
      <path id="Pfad_67" data-name="Pfad 67" d="M273.785,305.542c-.155.272-.645,1.151-.872,1.241-.318.126-1.242-.346-1.523-.918-.606-1.388,1.765-4.015,3.063-4.585a.767.767,0,0,1,.943.255c.054.136-.182.335-.3.435a.47.47,0,0,1,.5.327c.145.363-.546,1.532-.329,2.076.072.181.29.2.471.128.454-.181.9-1.042,1.226-1.54l.254.372c-.282.743-1.291,2.565-1.836,2.782a.577.577,0,0,1-.779-.373,4.483,4.483,0,0,1-.1-1.433h0Zm-1.47.27c.018.045.154.254.317.136.209-.136.59-.235,1.909-3.389h0C272.127,304.415,272.08,305.223,272.315,305.812Z" transform="translate(-216.298 -240.883)" fill="#ffffe5"/>
      <path id="Pfad_68" data-name="Pfad 68" d="M324.019,277.865c-.182.335-.391,1-.754,1.142a.5.5,0,0,1-.68-.255,5.212,5.212,0,0,1,.221-2.349.49.49,0,0,0-.009-.154.105.105,0,0,0-.127-.055c-.091.036-.254.417-.309.544-.337.87-.7,1.8-.992,2.656-.082.19-.146.426-.372.517-.545.217-1.024-.591-1.187-1-.434-1.089.176-3.12.893-3.3.181-.072.5-.2.608.073.09.227-.1.671-.164.907-.091.3-.273.635-.364.934a1.167,1.167,0,0,0-.082.716s.081.073.127.055.127-.208.155-.272c.309-.807,1.556-3.617,2.281-3.906a.475.475,0,0,1,.653.318c.2.5-.256,1.732-.3,2.276h0l1.7-2.991c.145-.163.373-.517.509-.571.091-.036.29.2.353.227a.868.868,0,0,1,.362.381,1.259,1.259,0,0,1-.128.734c-.482,1.3-.5,1.514-.392,1.786.054.136.263.263.381.164.209-.136.345-.19,1.372-1.7l.262.526c-.382.625-1.473,2.637-2.108,2.89a.691.691,0,0,1-.843-.4,5.036,5.036,0,0,1,.094-2.14h0Z" transform="translate(-259.009 -216.098)" fill="#ffffe5"/>
      <path id="Pfad_69" data-name="Pfad 69" d="M393.04,250.5c-.182.335-.391,1-.754,1.142a.5.5,0,0,1-.68-.255,5.21,5.21,0,0,1,.221-2.349.491.491,0,0,0-.009-.154.105.105,0,0,0-.127-.055c-.091.036-.254.417-.309.544-.337.87-.7,1.8-.992,2.656-.082.19-.146.426-.373.516-.544.217-1.024-.591-1.187-1-.434-1.089.176-3.12.893-3.3.182-.072.5-.2.607.073.091.227-.1.671-.164.907-.091.3-.273.635-.364.934a1.167,1.167,0,0,0-.083.716s.082.073.127.055.127-.208.155-.272c.309-.807,1.556-3.617,2.281-3.906a.475.475,0,0,1,.653.318c.2.5-.256,1.732-.3,2.276h0l1.7-2.991c.1-.145.327-.5.463-.553.091-.036.29.2.353.227a.868.868,0,0,1,.362.381,1.259,1.259,0,0,1-.128.734c-.482,1.3-.5,1.514-.392,1.786.054.136.263.263.381.164.209-.136.345-.19,1.372-1.7l.262.526c-.382.625-1.473,2.637-2.108,2.89a.691.691,0,0,1-.843-.4,5.036,5.036,0,0,1,.093-2.14h0Z" transform="translate(-319.955 -191.949)" fill="#ffffe5"/>
      <path id="Pfad_70" data-name="Pfad 70" d="M461.685,231.648c-.355,1.088-1.21,2.638-2.3,3.072a1.424,1.424,0,0,1-1.822-1.009,3.52,3.52,0,0,1,1.892-4.224c.363-.145.853-.235,1.034.219.217.544.016,1.623-1.891,3.172l.09.227c.117.426.553.463.916.319.817-.325,1.444-1.522,1.835-2.256Zm-2.13-1.254a.13.13,0,0,0-.19-.082,2.708,2.708,0,0,0-.964,2.066A3.224,3.224,0,0,0,459.555,230.394Z" transform="translate(-380.604 -177.442)" fill="#ffffe5"/>
      <g id="Gruppe_49" data-name="Gruppe 49" transform="translate(34.489 47.512)">
        <path id="Pfad_71" data-name="Pfad 71" d="M100.7,334c1.243-.18,2.022.193,2.239.737.9,2.269-2.9,4.2-4.532,4.855-.454.181-1.815.723-2.068.088a2.722,2.722,0,0,1,.192-1.233,4.219,4.219,0,0,1,.826-.7c.045-.018.091-.036.127.055a.324.324,0,0,1-.091.3c-.109-.009-.118.1-.145.163h0c4.092-1.473,4.729-3.041,4.657-3.223-.235-.59-3.546.2-4.127.33-.562.172-1.225.225-1.5-.455a4.591,4.591,0,0,1-.234-1.642c.083-.716,1.736-2.637,4.186-3.613a7.962,7.962,0,0,1,1.461-.424c.29-.063.326.028.417.255a1.188,1.188,0,0,1-.447,1.65,2.879,2.879,0,0,0-.781.942.694.694,0,0,1-.236.2.179.179,0,0,1-.254-.109,3.284,3.284,0,0,1,.509-1.1h0c-2.849,1.293-3.686,2.888-3.6,3.115C97.384,334.374,97.284,334.519,100.7,334Z" transform="translate(-96.04 -313.119)" fill="#ffffe5"/>
        <path id="Pfad_72" data-name="Pfad 72" d="M494.132,196.948c-.382.888-.974,2.438-1.972,2.836-.817.325-1.324-.419-1.577-1.054a6.068,6.068,0,0,1-.113-3.846c.51-1.623,1.183-3.1,1.546-3.245.182-.072.335.182.39.318.343,1.125.469,2.232-1.041,5.567a1.507,1.507,0,0,0,.217.807.67.67,0,0,0,.743.282c.635-.253,1.208-1.323,1.5-1.912Zm-2.956-.557a7.216,7.216,0,0,0,.73-3.182,5.552,5.552,0,0,0-.73,3.182Z" transform="translate(-444.091 -191.627)" fill="#ffffe5"/>
      </g>
    </g>
    <g id="Rechteck_79" data-name="Rechteck 79" transform="translate(152 160)" fill="#898888" stroke="#707070" stroke-width="1">
      <rect width="199" height="28" stroke="none"/>
      <rect x="0.5" y="0.5" width="198" height="27" fill="none"/>
    </g>
    <path id="Schrammel_News" data-name="Schrammel News" d="M-78.8-3.86a4.019,4.019,0,0,1-.36,1.74,3.9,3.9,0,0,1-.97,1.29,4.13,4.13,0,0,1-1.42.8,5.436,5.436,0,0,1-1.73.27,7.6,7.6,0,0,1-2.19-.32,6.014,6.014,0,0,1-2.09-1.16l1.14-1.54a3.717,3.717,0,0,0,.67.46,5.3,5.3,0,0,0,.77.34,4.991,4.991,0,0,0,.81.21,4.694,4.694,0,0,0,.79.07,3.015,3.015,0,0,0,1.81-.5,1.775,1.775,0,0,0,.69-1.54,1.717,1.717,0,0,0-.2-.83,2.682,2.682,0,0,0-.53-.68,4.207,4.207,0,0,0-.78-.57q-.45-.26-.93-.5-.78-.4-1.53-.8a7.015,7.015,0,0,1-1.35-.93,4.059,4.059,0,0,1-.96-1.26,3.971,3.971,0,0,1-.36-1.77,3.806,3.806,0,0,1,.29-1.49,3.432,3.432,0,0,1,.84-1.2,3.833,3.833,0,0,1,1.33-.79,5.186,5.186,0,0,1,1.76-.28,6.753,6.753,0,0,1,2.09.32,6.955,6.955,0,0,1,1.85.92l-1.08,1.64a4.764,4.764,0,0,0-1.32-.71,5.046,5.046,0,0,0-1.56-.21,2.575,2.575,0,0,0-1.48.42,1.42,1.42,0,0,0-.62,1.26,1.961,1.961,0,0,0,.25,1.02,2.667,2.667,0,0,0,.68.75,6.24,6.24,0,0,0,1.01.62l1.26.63q.62.3,1.23.67a5.407,5.407,0,0,1,1.1.88,4.114,4.114,0,0,1,.79,1.18A3.867,3.867,0,0,1-78.8-3.86ZM-64.44-2.5A6.478,6.478,0,0,1-66.77-.54,7.288,7.288,0,0,1-70.2.24a6.789,6.789,0,0,1-2.62-.53,7.326,7.326,0,0,1-2.29-1.5,7.389,7.389,0,0,1-1.63-2.37,7.674,7.674,0,0,1-.62-3.14,8.05,8.05,0,0,1,.54-2.96,7.389,7.389,0,0,1,1.5-2.4,6.886,6.886,0,0,1,2.29-1.6,7.2,7.2,0,0,1,2.91-.58,7.413,7.413,0,0,1,3.25.62,6.534,6.534,0,0,1,2.15,1.66l-1.48,1.32a5.559,5.559,0,0,0-1.72-1.21,5.228,5.228,0,0,0-2.16-.43,5.127,5.127,0,0,0-2.01.4,5.069,5.069,0,0,0-1.66,1.12,5.213,5.213,0,0,0-1.12,1.74,6.065,6.065,0,0,0-.41,2.28,5.894,5.894,0,0,0,.48,2.47,5.467,5.467,0,0,0,1.23,1.75,5.106,5.106,0,0,0,1.66,1.05,4.868,4.868,0,0,0,1.75.35,5.867,5.867,0,0,0,2.2-.46,5.417,5.417,0,0,0,2.08-1.56ZM-53.16,0V-6.28h-7V0h-2V-14.6h2v6.44h7V-14.6h2V0Zm12.9,0-5.9-6.82V0h-2V-14.6h4.72a4.838,4.838,0,0,1,1.85.34,4.384,4.384,0,0,1,1.43.93,4.066,4.066,0,0,1,.92,1.37,4.331,4.331,0,0,1,.32,1.66,3.97,3.97,0,0,1-.34,1.64,4.319,4.319,0,0,1-.92,1.33,4.273,4.273,0,0,1-1.33.89,3.96,3.96,0,0,1-1.57.32L-37.7,0ZM-41-10.38a2.059,2.059,0,0,0-.17-.79,2.24,2.24,0,0,0-.52-.75,2.94,2.94,0,0,0-.87-.57,3.05,3.05,0,0,0-1.24-.23h-2.36V-7.7h2.32a2.818,2.818,0,0,0,2.1-.75A2.631,2.631,0,0,0-41-10.38ZM-26.46,0l-1.76-4.72h-4.66L-34.64,0h-2.12l5.6-14.6h1.28L-24.24,0Zm-3.98-10.68a.311.311,0,0,1-.05-.13.743.743,0,0,0-.03-.13q-.02-.08-.04-.14-.02.06-.04.14a.743.743,0,0,0-.03.13.368.368,0,0,1-.03.11l-1.52,4.1h3.26ZM-9.92,0V-10.94a.744.744,0,0,1,.02-.18.927.927,0,0,1,.02-.18,1.307,1.307,0,0,0-.08.14.926.926,0,0,1-.12.2l-4.58,6.18h-.8l-4.62-6.02a.381.381,0,0,1-.07-.1.381.381,0,0,0-.07-.1.5.5,0,0,1-.06-.12.744.744,0,0,0,.02.18,1.543,1.543,0,0,0,.01.17,1.722,1.722,0,0,1,.01.19V0h-2V-14.6h1.7l5.5,7.14L-9.7-14.6h1.78V0ZM7.4,0V-10.94a.744.744,0,0,1,.02-.18.927.927,0,0,1,.02-.18,1.307,1.307,0,0,0-.08.14.926.926,0,0,1-.12.2L2.66-4.78h-.8L-2.76-10.8a.381.381,0,0,1-.07-.1A.381.381,0,0,0-2.9-11a.5.5,0,0,1-.06-.12.744.744,0,0,0,.02.18,1.543,1.543,0,0,0,.01.17,1.722,1.722,0,0,1,.01.19V0h-2V-14.6h1.7l5.5,7.14L7.62-14.6H9.4V0Zm5,0V-14.6h8.16v1.88H14.4v4.66h6.02v1.88H14.4v4.3h6.54V0ZM23.46,0V-14.6h2V-1.88H31V0ZM45.92,0,38.26-10.58a.522.522,0,0,1-.08-.11q-.04-.07-.08-.13a1.051,1.051,0,0,1-.1-.16.744.744,0,0,0,.02.18,1.288,1.288,0,0,0,.01.16,1.147,1.147,0,0,1,.01.14V0h-2V-14.6h1.7L45.3-4.22q.04.06.09.14t.09.14a1.308,1.308,0,0,0,.08.14.927.927,0,0,1-.02-.18,1.657,1.657,0,0,1-.02-.3V-14.6h2V0Zm4.6,0V-14.6h8.16v1.88H52.52v4.66h6.02v1.88H52.52v4.3h6.54V0ZM73.66,0H72.3L69.34-9.74q-.04-.14-.08-.27t-.06-.23a.755.755,0,0,1-.04-.24,1.487,1.487,0,0,1-.06.26,1.05,1.05,0,0,0-.06.23,1.52,1.52,0,0,1-.06.25L65.96,0H64.64L60.8-14.6h1.96L65.3-5.02l.04.2.04.2q.02.1.04.22a.587.587,0,0,1,.04-.22q.02-.1.05-.21a1.938,1.938,0,0,1,.07-.21L68.6-14.6h1.32l2.92,9.64q.02.1.04.19t.04.19l.04.2.04-.2q.02-.1.03-.2a.734.734,0,0,1,.05-.2L75.8-14.6h1.94ZM87.72-3.86a4.019,4.019,0,0,1-.36,1.74,3.9,3.9,0,0,1-.97,1.29,4.13,4.13,0,0,1-1.42.8,5.436,5.436,0,0,1-1.73.27,7.6,7.6,0,0,1-2.19-.32,6.014,6.014,0,0,1-2.09-1.16L80.1-2.78a3.717,3.717,0,0,0,.67.46,5.3,5.3,0,0,0,.77.34,4.991,4.991,0,0,0,.81.21,4.694,4.694,0,0,0,.79.07,3.015,3.015,0,0,0,1.81-.5,1.775,1.775,0,0,0,.69-1.54,1.717,1.717,0,0,0-.2-.83,2.682,2.682,0,0,0-.53-.68,4.207,4.207,0,0,0-.78-.57q-.45-.26-.93-.5-.78-.4-1.53-.8a7.015,7.015,0,0,1-1.35-.93,4.059,4.059,0,0,1-.96-1.26A3.971,3.971,0,0,1,79-11.08a3.806,3.806,0,0,1,.29-1.49,3.432,3.432,0,0,1,.84-1.2,3.833,3.833,0,0,1,1.33-.79,5.186,5.186,0,0,1,1.76-.28,6.753,6.753,0,0,1,2.09.32,6.955,6.955,0,0,1,1.85.92l-1.08,1.64a4.764,4.764,0,0,0-1.32-.71,5.046,5.046,0,0,0-1.56-.21,2.575,2.575,0,0,0-1.48.42,1.42,1.42,0,0,0-.62,1.26,1.961,1.961,0,0,0,.25,1.02,2.667,2.667,0,0,0,.68.75,6.24,6.24,0,0,0,1.01.62l1.26.63q.62.3,1.23.67a5.407,5.407,0,0,1,1.1.88,4.114,4.114,0,0,1,.79,1.18A3.867,3.867,0,0,1,87.72-3.86Z" transform="translate(251 181)" fill="#fffcd9"/>
    <path id="OJD_Version" data-name="OJD Version" d="M-34.035-5.475a5.571,5.571,0,0,1-.443,2.228,5.756,5.756,0,0,1-1.2,1.792,5.523,5.523,0,0,1-1.778,1.2A5.486,5.486,0,0,1-39.63.18a5.663,5.663,0,0,1-2.2-.428A5.611,5.611,0,0,1-43.62-1.425a5.378,5.378,0,0,1-1.2-1.793,5.882,5.882,0,0,1-.435-2.288,5.83,5.83,0,0,1,.42-2.227,5.485,5.485,0,0,1,1.162-1.785A5.314,5.314,0,0,1-41.91-10.7a5.646,5.646,0,0,1,2.2-.427,5.963,5.963,0,0,1,2.318.435,5.3,5.3,0,0,1,1.785,1.2,5.452,5.452,0,0,1,1.155,1.8A5.941,5.941,0,0,1-34.035-5.475Zm-1.56-.06a4.421,4.421,0,0,0-.3-1.643,3.856,3.856,0,0,0-.84-1.3,3.9,3.9,0,0,0-1.3-.863A4.275,4.275,0,0,0-39.69-9.66a4.125,4.125,0,0,0-1.628.315,3.774,3.774,0,0,0-1.267.863A3.865,3.865,0,0,0-43.4-7.17a4.624,4.624,0,0,0-.292,1.665,4.251,4.251,0,0,0,.33,1.688,4.2,4.2,0,0,0,.893,1.335,4.1,4.1,0,0,0,1.3.878,3.882,3.882,0,0,0,1.545.315,4.083,4.083,0,0,0,1.538-.292A3.8,3.8,0,0,0-36.81-2.43a4.151,4.151,0,0,0,.885-1.335A4.5,4.5,0,0,0-35.6-5.535ZM-29.61-2.64a3.144,3.144,0,0,1-.173,1.027,2.7,2.7,0,0,1-.517.9,2.567,2.567,0,0,1-.885.645A3.037,3.037,0,0,1-32.46.18q-.285,0-.533-.015a2.639,2.639,0,0,1-.592-.12V-1.3a2.575,2.575,0,0,0,.517.067q.262.007.488.008a1.43,1.43,0,0,0,1.1-.4,1.585,1.585,0,0,0,.368-1.117V-10.95h1.5Zm10.815-2.865A5.684,5.684,0,0,1-19.2-3.36a4.974,4.974,0,0,1-1.177,1.748A5.657,5.657,0,0,1-22.26-.435,6.864,6.864,0,0,1-24.78,0h-2.655V-10.95h2.79a6.806,6.806,0,0,1,2.49.428,5.267,5.267,0,0,1,1.837,1.17A5.03,5.03,0,0,1-19.185-7.62,5.718,5.718,0,0,1-18.795-5.505Zm-1.56.015a4.1,4.1,0,0,0-.307-1.583,3.981,3.981,0,0,0-.87-1.3A4.137,4.137,0,0,0-22.89-9.27a4.616,4.616,0,0,0-1.785-.33h-1.26v8.25h.975a5.443,5.443,0,0,0,2.085-.36,4.162,4.162,0,0,0,1.433-.945,3.656,3.656,0,0,0,.825-1.328A4.493,4.493,0,0,0-20.355-5.49ZM-10.71,0h-.93L-15.5-10.95h1.455l2.775,7.905.03.12.03.12q.015.06.03.135.015-.075.03-.135a1.012,1.012,0,0,0,.022-.12.37.37,0,0,1,.038-.12L-8.3-10.95H-6.87Zm5.34,0V-10.95H.75v1.41H-3.87v3.495H.645v1.41H-3.87V-1.41h4.9V0ZM8.85,0,4.425-5.115V0h-1.5V-10.95h3.54a3.629,3.629,0,0,1,1.387.255,3.288,3.288,0,0,1,1.073.7,3.05,3.05,0,0,1,.69,1.027,3.248,3.248,0,0,1,.24,1.245A2.977,2.977,0,0,1,9.6-6.495a3.239,3.239,0,0,1-.69,1,3.205,3.205,0,0,1-1,.668,2.97,2.97,0,0,1-1.178.24L10.77,0ZM8.295-7.785a1.544,1.544,0,0,0-.127-.592,1.68,1.68,0,0,0-.39-.563,2.2,2.2,0,0,0-.653-.427,2.287,2.287,0,0,0-.93-.173H4.425v3.765h1.74A2.114,2.114,0,0,0,7.74-6.338,1.974,1.974,0,0,0,8.295-7.785Zm9.9,4.89a3.014,3.014,0,0,1-.27,1.3,2.921,2.921,0,0,1-.728.968,3.1,3.1,0,0,1-1.065.6,4.077,4.077,0,0,1-1.3.2,5.7,5.7,0,0,1-1.642-.24,4.51,4.51,0,0,1-1.568-.87l.855-1.155a2.788,2.788,0,0,0,.5.345,3.971,3.971,0,0,0,.577.255,3.743,3.743,0,0,0,.608.158,3.521,3.521,0,0,0,.593.053,2.261,2.261,0,0,0,1.357-.375,1.331,1.331,0,0,0,.517-1.155,1.288,1.288,0,0,0-.15-.622,2.012,2.012,0,0,0-.4-.51,3.155,3.155,0,0,0-.585-.428q-.337-.195-.7-.375-.585-.3-1.147-.6a5.262,5.262,0,0,1-1.013-.7,3.044,3.044,0,0,1-.72-.945,2.978,2.978,0,0,1-.27-1.328,2.855,2.855,0,0,1,.217-1.117,2.574,2.574,0,0,1,.63-.9,2.875,2.875,0,0,1,1-.593,3.889,3.889,0,0,1,1.32-.21,5.065,5.065,0,0,1,1.568.24,5.216,5.216,0,0,1,1.388.69l-.81,1.23a3.573,3.573,0,0,0-.99-.532,3.785,3.785,0,0,0-1.17-.158,1.932,1.932,0,0,0-1.11.315,1.065,1.065,0,0,0-.465.945,1.47,1.47,0,0,0,.188.765,2,2,0,0,0,.51.563,4.68,4.68,0,0,0,.757.465l.945.472q.465.225.923.5a4.055,4.055,0,0,1,.825.66,3.086,3.086,0,0,1,.593.885A2.9,2.9,0,0,1,18.2-2.895ZM19.875,0V-10.95h1.5V0ZM34.4-5.475a5.571,5.571,0,0,1-.443,2.228,5.756,5.756,0,0,1-1.2,1.792,5.523,5.523,0,0,1-1.777,1.2A5.486,5.486,0,0,1,28.8.18a5.663,5.663,0,0,1-2.2-.428A5.611,5.611,0,0,1,24.81-1.425a5.378,5.378,0,0,1-1.2-1.793,5.882,5.882,0,0,1-.435-2.288,5.83,5.83,0,0,1,.42-2.227,5.485,5.485,0,0,1,1.163-1.785A5.314,5.314,0,0,1,26.52-10.7a5.646,5.646,0,0,1,2.2-.427,5.963,5.963,0,0,1,2.317.435,5.3,5.3,0,0,1,1.785,1.2,5.452,5.452,0,0,1,1.155,1.8A5.941,5.941,0,0,1,34.4-5.475Zm-1.56-.06a4.421,4.421,0,0,0-.3-1.643,3.856,3.856,0,0,0-.84-1.3,3.9,3.9,0,0,0-1.3-.863A4.275,4.275,0,0,0,28.74-9.66a4.125,4.125,0,0,0-1.628.315,3.774,3.774,0,0,0-1.267.863,3.865,3.865,0,0,0-.817,1.313,4.624,4.624,0,0,0-.292,1.665,4.251,4.251,0,0,0,.33,1.688,4.2,4.2,0,0,0,.892,1.335,4.1,4.1,0,0,0,1.3.878A3.882,3.882,0,0,0,28.8-1.29a4.083,4.083,0,0,0,1.538-.292A3.8,3.8,0,0,0,31.62-2.43a4.151,4.151,0,0,0,.885-1.335A4.5,4.5,0,0,0,32.835-5.535ZM43.6,0,37.86-7.935a.392.392,0,0,1-.06-.082q-.03-.052-.06-.1a.788.788,0,0,1-.075-.12.558.558,0,0,0,.015.135.966.966,0,0,0,.007.12.86.86,0,0,1,.007.105V0h-1.5V-10.95H37.47l5.67,7.785q.03.045.068.105t.068.105a.981.981,0,0,0,.06.105.7.7,0,0,1-.015-.135,1.243,1.243,0,0,1-.015-.225v-7.74h1.5V0Z" transform="translate(252 609)" fill="#fffcd9"/>
  </g>
</svg>
