<svg xmlns="http://www.w3.org/2000/svg" xmlns:xlink="http://www.w3.org/1999/xlink" width="405" height="750" viewBox="0 0 405 750">
  <defs>
    <linearGradient id="linear-gradient" x1="0.5" x2="0.5" y2="1" gradientUnits="objectBoundingBox">
      <stop offset="0" stop-color="#fffeeb"/>
      <stop offset="1" stop-color="#fffcd9"/>
    </linearGradient>
    <filter id="METAL" x="-16" y="-26.461" width="437" height="803.461" filterUnits="userSpaceOnUse">
      <feOffset input="SourceAlpha"/>
      <feGaussianBlur stdDeviation="12" result="blur"/>
      <feFlood flood-opacity="0.149"/>
      <feComposite operator="in" in2="blur"/>
      <feComposite in="SourceGraphic"/>
    </filter>
    <linearGradient id="linear-gradient-2" x1="3.176" y1="0.5" x2="3.101" y2="1.373" gradientUnits="objectBoundingBox">
      <stop offset="0" stop-color="#33332e"/>
      <stop offset="1" stop-color="#393939"/>
    </linearGradient>
    <linearGradient id="linear-gradient-6" x1="3.331" y1="1" x2="0" y2="1" gradientUnits="objectBoundingBox">
      <stop offset="0" stop-color="#3f3e39"/>
      <stop offset="0.852" stop-color="#45433e"/>
      <stop offset="0.887" stop-color="#3f3e39"/>
      <stop offset="1" stop-color="#4e4e4e"/>
    </linearGradient>
    <filter id="KLINKE" x="-8.999" y="478.371" width="38.141" height="88.257" filterUnits="userSpaceOnUse">
      <feOffset input="SourceAlpha"/>
      <feGaussianBlur stdDeviation="3" result="blur-2"/>
      <feFlood flood-opacity="0.161"/>
      <feComposite operator="in" in2="blur-2"/>
      <feComposite in="SourceGraphic"/>
    </filter>
    <filter id="KLINKE-2" x="376.001" y="478.371" width="38.141" height="88.257" filterUnits="userSpaceOnUse">
      <feOffset input="SourceAlpha"/>
      <feGaussianBlur stdDeviation="3" result="blur-3"/>
      <feFlood flood-opacity="0.161"/>
      <feComposite operator="in" in2="blur-3"/>
      <feComposite in="SourceGraphic"/>
    </filter>
    <linearGradient id="linear-gradient-8" x1="4.013" y1="-0.486" x2="4.446" y2="0.948" gradientUnits="objectBoundingBox">
      <stop offset="0" stop-color="#96967b"/>
      <stop offset="1" stop-color="#d0cdb1"/>
    </linearGradient>
    <clipPath id="clip-ZeichenflaechePedal">
      <rect width="405" height="750"/>
    </clipPath>
  </defs>
  <g id="ZeichenflaechePedal" clip-path="url(#clip-ZeichenflaechePedal)">
    <g id="Pedal" transform="translate(-49 -53)">
      <g id="Pedal_Housing">
        <g transform="matrix(1, 0, 0, 1, 49, 53)" filter="url(#METAL)">
          <path id="METAL-2" data-name="METAL" d="M40,0H325c22.091,0,40,17.4,40,38.856V692.605c0,21.459-17.909,38.856-40,38.856H40c-22.091,0-40-17.4-40-38.856V38.856C0,17.4,17.909,0,40,0Z" transform="translate(20 9.54)" fill="url(#linear-gradient)"/>
        </g>
        <g id="TONE" transform="translate(-447.415 -982.61)">
          <g id="Gruppe_13" data-name="Gruppe 13" transform="translate(673.1 1428.5)">
            <g id="Gruppe_12" data-name="Gruppe 12" transform="translate(0)">
              <g id="Gruppe_11" data-name="Gruppe 11">
                <path id="Pfad_1" data-name="Pfad 1" d="M678.027,1431.8l-2.605,8.667-2.322-.7,2.606-8.668-2.115-.645.593-1.961,6.5,1.961-.593,1.96Z" transform="translate(-673.1 -1428.5)" fill="url(#linear-gradient-2)"/>
                <path id="Pfad_2" data-name="Pfad 2" d="M720.809,1453.06a5.642,5.642,0,0,1-5.03-6.424,5.435,5.435,0,0,1,6.294-4.979,5.736,5.736,0,0,1-1.264,11.4Zm1.032-9.287a3.353,3.353,0,0,0-3.586,3.147,3.5,3.5,0,0,0,2.786,4.024,3.633,3.633,0,0,0,.8-7.171Z" transform="translate(-704.738 -1438.227)" fill="url(#linear-gradient-2)"/>
                <path id="Pfad_3" data-name="Pfad 3" d="M789.194,1451.873l-5.546-5.907a3.639,3.639,0,0,1-.31-.413s.052.284.077.568l.671,6.32-2.425.258-1.161-11.041,2.089-.232,5.546,5.856a3.639,3.639,0,0,1,.31.413s-.052-.284-.077-.567l-.671-6.269,2.425-.258,1.161,11.041Z" transform="translate(-752.794 -1437.478)" fill="url(#linear-gradient-2)"/>
                <path id="Pfad_4" data-name="Pfad 4" d="M840.373,1441.486l-3.173-10.628,6.191-1.858.593,1.961-3.87,1.161.748,2.5,3.586-1.083.593,1.96-3.586,1.083.671,2.245,4.076-1.213.593,1.961Z" transform="translate(-794.867 -1428.871)" fill="url(#linear-gradient-2)"/>
              </g>
            </g>
          </g>
        </g>
        <g id="DRIVE" transform="translate(-118.713 -276.217)">
          <g id="Gruppe_21" data-name="Gruppe 21" transform="translate(200.7 442.3)">
            <path id="Pfad_10" data-name="Pfad 10" d="M235.765,723.2l1,2.032-8.129,7.928-1.079-2.183,5.243-4.943c.2-.2.477-.426.477-.426s-.351.05-.627.1l-7.1,1.179-1.054-2.133Z" transform="translate(-218.529 -652.726)" fill="#33332e"/>
            <path id="Pfad_11" data-name="Pfad 11" d="M220.353,664.435a5.586,5.586,0,0,1-10.813,2.81,5.273,5.273,0,0,1,3.939-6.774A5.433,5.433,0,0,1,220.353,664.435Zm-8.781,2.258a3.521,3.521,0,1,0,2.534-3.889A3.227,3.227,0,0,0,211.572,666.693Z" transform="translate(-207.157 -605.578)" fill="#33332e"/>
            <path id="Pfad_12" data-name="Pfad 12" d="M212.639,620.3l-10.763.778-.176-2.358,8.781-.627-.276-3.839,1.982-.151Z" transform="translate(-201.449 -570.998)" fill="#33332e"/>
            <path id="Pfad_13" data-name="Pfad 13" d="M212.09,562.1a4.355,4.355,0,0,1-5.018,4.089l-6.373-.7.251-2.358,6.372.7a2.289,2.289,0,0,0,2.735-1.957,2.372,2.372,0,0,0-2.233-2.634l-6.372-.7.251-2.333,6.347.7A4.437,4.437,0,0,1,212.09,562.1Z" transform="translate(-200.7 -527.624)" fill="#33332e"/>
            <path id="Pfad_14" data-name="Pfad 14" d="M223.121,494.1l-5.9-1.982c-.376-.125-.7-.276-.7-.276s.2.176.351.326l3.412,3.688-.276.853-4.968.9a2.385,2.385,0,0,1-.477.05,5.974,5.974,0,0,1,.728.2l5.9,1.982-.753,2.233L210.2,498.636l.753-2.208,5.921-1.079a2.932,2.932,0,0,1,.527-.05s-.226-.176-.4-.326l-4.115-4.29.778-2.283,10.236,3.437Z" transform="translate(-207.817 -476.834)" fill="#33332e"/>
            <path id="Pfad_15" data-name="Pfad 15" d="M245.258,453.138l-9.358-5.394,3.136-5.444,1.731,1-1.957,3.387,2.183,1.254,1.806-3.161,1.731,1-1.806,3.161,1.982,1.129,2.057-3.588,1.731,1Z" transform="translate(-227.069 -442.3)" fill="#33332e"/>
          </g>
        </g>
        <g id="VOLUME" transform="translate(-876.563 -317.35)">
          <g id="Gruppe_19" data-name="Gruppe 19" transform="translate(1282.8 495.5)">
            <g id="Gruppe_18" data-name="Gruppe 18" transform="translate(0)">
              <g id="Gruppe_17" data-name="Gruppe 17">
                <path id="Pfad_5" data-name="Pfad 5" d="M1283.912,501.867l-1.012-3.06,10.094-3.307,1.012,3.06c.938,2.887-.049,5.824-3.307,6.91A5.245,5.245,0,0,1,1283.912,501.867Zm8.218-2.715-.272-.839-6.367,2.1.271.839a3.36,3.36,0,0,0,6.367-2.1Z" transform="translate(-1282.875 -495.5)" fill="#33332e"/>
                <path id="Pfad_6" data-name="Pfad 6" d="M1297.991,559.939l4.59-3.578L1297.6,557l-.3-2.32,10.538-1.382.494,3.776c.3,2.2-.864,3.8-2.665,4.023a2.969,2.969,0,0,1-3.282-1.974l-4.047,3.381Zm8.391-2.591-.2-1.481-2.542.321.2,1.481a1.239,1.239,0,0,0,1.505,1.135A1.2,1.2,0,0,0,1306.382,557.347Z" transform="translate(-1293.722 -539.036)" fill="#33332e"/>
                <path id="Pfad_7" data-name="Pfad 7" d="M1301.425,607.4l10.612.148-.025,2.32-10.612-.148Z" transform="translate(-1296.81 -579.784)" fill="#33332e"/>
                <path id="Pfad_8" data-name="Pfad 8" d="M1297.4,643.249l.345-2.2,11.031-1.752-.37,2.345-7.034.962c-.3.049-.617.074-.617.074s.321.148.568.272l6.367,3.085-.37,2.3Z" transform="translate(-1293.797 -603.812)" fill="#33332e"/>
                <path id="Pfad_9" data-name="Pfad 9" d="M1284.824,684l10.044,3.43-2,5.849-1.851-.642,1.259-3.653-2.344-.814-1.16,3.381-1.851-.642,1.16-3.381-2.122-.716-1.308,3.85-1.851-.642Z" transform="translate(-1282.8 -637.48)" fill="#33332e"/>
              </g>
            </g>
          </g>
        </g>
        <g id="LOGO" transform="translate(-119.287 45.158)" opacity="0.878">
          <g id="Gruppe_23" data-name="Gruppe 23" transform="translate(227.613 474)">
            <path id="Pfad_16" data-name="Pfad 16" d="M292.67,1728.485c-34.066,0-57.67-24.437-57.67-56.42s23.6-56.264,57.67-56.264c34.352,0,57.539,24.307,57.539,56.264C350.209,1704.048,327.568,1728.485,292.67,1728.485Zm0-91.345c-20.533,0-33.233,15.771-33.233,34.9,0,19.258,12.7,35.341,33.233,35.341,20.949,0,33.1-16.057,33.1-35.341C325.772,1652.937,313.619,1637.14,292.67,1637.14Z" transform="translate(-235 -1615.8)" fill="#1a1a1a" opacity="0.95" style="isolation: isolate"/>
            <path id="Pfad_17" data-name="Pfad 17" d="M990.662,1729.77H953.5V1620h29.876c38,0,61.99,16.187,61.99,56.836C1045.391,1702.549,1028.762,1729.77,990.662,1729.77Zm-7.261-89.783h-5.309v68.834h8.38c21.236,0,34.482-12.986,34.482-33.649C1020.954,1653.805,1009.634,1639.987,983.4,1639.987Z" transform="translate(-766.517 -1618.907)" fill="#1a1a1a" opacity="0.95" style="isolation: isolate"/>
            <path id="Pfad_18" data-name="Pfad 18" d="M699.969,1731.175H690.6v-20.819h6.428c12.856,0,17.462-5.309,17.462-16.76V1620h24.567v75.678C739.057,1718.449,724.952,1731.175,699.969,1731.175Z" transform="translate(-572.034 -1618.907)" fill="#1a1a1a" opacity="0.95" style="isolation: isolate"/>
          </g>
        </g>
        <path id="Pfad_80" data-name="Pfad 80" d="M7.44-2.484A2.1,2.1,0,0,0,5.664-4.536a2.007,2.007,0,0,0,1.32-1.872c0-1.476-1.212-2.352-3.048-2.352H.9V0H4.224C6.192,0,7.44-.912,7.44-2.484ZM5.1-6.18c0,.72-.456,1.068-1.344,1.068H2.82V-7.14h.936C4.608-7.14,5.1-6.912,5.1-6.18Zm.36,3.588c0,.612-.336.972-1.236.972H2.82V-3.492h1.4C5.016-3.492,5.46-3.2,5.46-2.592ZM16.8-8.76H14.6l-1.6,3.036a2.906,2.906,0,0,0-.168.468,2.906,2.906,0,0,0-.168-.468L11.064-8.76H8.88l2.976,5.208V0h1.92V-3.552Zm8.628,2.58c0-1.644-1.248-2.58-3.2-2.58h-2.9V0h1.92V-3.48h.984C24.2-3.48,25.428-4.524,25.428-6.18Zm-1.92.036c0,.708-.42,1.044-1.284,1.044H21.24V-7.14h.984C23.076-7.14,23.508-6.864,23.508-6.144ZM34.5,0,31.32-8.76H29.472L26.34,0h2.028l.684-2.208h2.664L32.388,0ZM31.236-3.828h-1.68l.66-2.136c.1-.324.18-.708.18-.708s.1.4.192.708ZM42.492-2.484A2.49,2.49,0,0,0,40.728-4.9c-1.02-.444-2.136-.684-2.136-1.476,0-.348.312-.852,1.2-.852a2.956,2.956,0,0,1,1.668.5l.864-1.428A4.409,4.409,0,0,0,39.792-8.9c-1.548,0-3.12.732-3.12,2.532a2.48,2.48,0,0,0,1.572,2.424c.732.408,2.328.708,2.328,1.584,0,.528-.24.828-1.116.828a3.383,3.383,0,0,1-1.98-.756l-1,1.344A4.583,4.583,0,0,0,39.42.144C41.316.144,42.492-.828,42.492-2.484Zm8.256,0A2.49,2.49,0,0,0,48.984-4.9c-1.02-.444-2.136-.684-2.136-1.476,0-.348.312-.852,1.2-.852a2.956,2.956,0,0,1,1.668.5l.864-1.428A4.409,4.409,0,0,0,48.048-8.9c-1.548,0-3.12.732-3.12,2.532A2.48,2.48,0,0,0,46.5-3.948c.732.408,2.328.708,2.328,1.584,0,.528-.24.828-1.116.828a3.383,3.383,0,0,1-1.98-.756l-1,1.344A4.583,4.583,0,0,0,47.676.144C49.572.144,50.748-.828,50.748-2.484Z" transform="translate(190 698)" fill="#3f3e39"/>
        <g transform="matrix(1, 0, 0, 1, 49, 53)" filter="url(#KLINKE)">
          <path id="KLINKE-3" data-name="KLINKE" d="M54.084,1117.255c0,2,4.75,15,4.75,15h6l.25-70.257H57.835c-1.25,1.25-4.25,14.752-4.25,14.752l-7.751.75c-2,17.5,0,38.5,0,38.5l8.251,1.5" transform="translate(-44.94 -574.63)" fill="url(#linear-gradient-6)"/>
        </g>
        <g transform="matrix(1, 0, 0, 1, 49, 53)" filter="url(#KLINKE-2)">
          <path id="KLINKE-4" data-name="KLINKE" d="M54.084,1117.255c0,2,4.75,15,4.75,15h6l.25-70.257H57.835c-1.25,1.25-4.25,14.752-4.25,14.752l-7.751.75c-2,17.5,0,38.5,0,38.5l8.251,1.5" transform="translate(450.09 1619.63) rotate(180)" fill="url(#linear-gradient-6)"/>
        </g>
        <g id="SCHRAMMEL" transform="translate(-1147.196 -1230.539) rotate(-16)" opacity="0.382">
          <g id="Gruppe_28" data-name="Gruppe 28" transform="translate(763 2285.7)">
            <path id="Pfad_25" data-name="Pfad 25" d="M834.679,2318.8c-.349.254-.635.492-.635.937,0,.365.381.857,1.207.857,1.207,0,2.573-1.111,3.494-1.81l.191.619c-.969,1.032-2.731,2.588-4.24,2.588-1.223,0-1.795-1.143-1.795-2.3,0-1.334.476-1.81,1.509-2.589a6.982,6.982,0,0,1,3.113-1.4.637.637,0,0,1,.715.731,2.857,2.857,0,0,1-1.667,2.08c-.365,0-.524-.4-.54-.7Z" transform="translate(-821.799 -2310.936)" fill="url(#linear-gradient-8)"/>
            <path id="Pfad_26" data-name="Pfad 26" d="M868.875,2297.406c.778-.619,3.652-3.144,4.526-3.144a.833.833,0,0,1,.762.763c0,.3-.635,1-.826,1.223-.985,1.191-.937,1.239-.937,1.4a.329.329,0,0,0,.349.333,6.677,6.677,0,0,0,2.128-1.159l.079.651c-.731.556-2.636,2.1-3.51,2.1a.766.766,0,0,1-.731-.841c0-1,1.1-2.192,1.652-2.938l-.032-.032c-2.7,1.842-3.494,3.525-4,3.525-.556,0-.635-1.239-.635-1.588a4.922,4.922,0,0,1,.969-2.747c1.858-3.081,5-5.845,5.542-5.845.254,0,.683.111.683.429,0,1.08-5.018,6.289-6.035,7.289l.016.587Z" transform="translate(-851.073 -2288.56)" fill="url(#linear-gradient-8)"/>
            <path id="Pfad_27" data-name="Pfad 27" d="M909.453,2318.168a11.053,11.053,0,0,1-1.89,1.953l-.064-.7a5.566,5.566,0,0,0,1.048-1.159c-.334-.031-.429-.159-.429-.492,0-1.144,1.6-2.271,1.985-2.271a.282.282,0,0,1,.286.27,1.082,1.082,0,0,1-.111.445c1.493-.207,2.35-.4,2.509-.207a1.591,1.591,0,0,1,.381.842c0,.492-.3.731-.667,1.032-.46.4-1.239,1.175-1.239,1.794a.486.486,0,0,0,.492.445c.683,0,1.667-1.032,2.192-1.429l.111.587c-.6.683-2.414,2.43-3.319,2.43a1.155,1.155,0,0,1-1.08-1.223,4.481,4.481,0,0,1,1.461-2.668l-.032-.031Z" transform="translate(-884.552 -2310.767)" fill="url(#linear-gradient-8)"/>
            <path id="Pfad_28" data-name="Pfad 28" d="M947.461,2321.542c-.3.238-1.318,1.064-1.667,1.064-.445,0-1.366-1.048-1.4-1.858-.063-1.969,4.05-4,5.876-4.05a.976.976,0,0,1,1.032.762c0,.19-.413.349-.556.4a.636.636,0,0,1,.461.651c0,.508-1.382,1.6-1.382,2.35,0,.27.238.381.492.381.667,0,1.556-.81,2.239-1.27l.127.587c-.683.778-2.795,2.461-3.573,2.461a.747.747,0,0,1-.762-.842,5.133,5.133,0,0,1,.588-1.763l-.032-.032Zm-1.922-.413c.016.079.079.365.318.317.318-.063.81-.016,3.938-3.176l-.032-.032C946,2319.382,945.54,2320.351,945.54,2321.129Z" transform="translate(-915.589 -2311.776)" fill="url(#linear-gradient-8)"/>
            <path id="Pfad_29" data-name="Pfad 29" d="M1000.227,2321.755c-.365.35-.937,1-1.477,1a.688.688,0,0,1-.7-.667c-.016-.461.365-1.191,1.4-2.748a.489.489,0,0,0,.1-.206.109.109,0,0,0-.111-.111c-.159,0-.508.381-.619.492-.826.874-1.7,1.81-2.446,2.731a.991.991,0,0,1-.683.445c-.762,0-.985-1.239-.985-1.794.016-1.556,1.683-3.668,2.636-3.541.238.032.715.032.715.365,0,.317-.445.794-.635,1.016a12.25,12.25,0,0,0-.874.969c-.175.238-.461.492-.461.826,0,.032.048.143.111.143.079,0,.27-.206.318-.254.778-.81,3.589-3.621,4.621-3.621a.648.648,0,0,1,.651.73c0,.7-1.127,1.969-1.477,2.589l.032.032,3.51-2.763c.159-.127.556-.445.746-.445.127,0,.286.381.333.445a1.36,1.36,0,0,1,.286.635c0,.27-.318.619-.492.81-1.239,1.366-1.334,1.6-1.35,1.969-.016.19.191.445.381.4.333-.08.508-.08,2.446-1.413l.1.746c-.746.587-3.017,2.446-3.906,2.446a.881.881,0,0,1-.81-.921,6.356,6.356,0,0,1,1.175-2.557l-.032-.032Z" transform="translate(-957.905 -2311.861)" fill="url(#linear-gradient-8)"/>
            <path id="Pfad_30" data-name="Pfad 30" d="M1070.927,2321.755c-.365.35-.937,1-1.477,1a.688.688,0,0,1-.7-.667c-.016-.461.365-1.191,1.4-2.748a.489.489,0,0,0,.1-.206.109.109,0,0,0-.111-.111c-.159,0-.508.381-.619.492-.826.874-1.7,1.81-2.445,2.731a.991.991,0,0,1-.683.445c-.762,0-.985-1.239-.985-1.794.016-1.556,1.683-3.668,2.636-3.541.238.032.714.032.714.365,0,.317-.445.794-.635,1.016a12.274,12.274,0,0,0-.874.969c-.175.238-.461.492-.461.826,0,.032.048.143.111.143.08,0,.27-.206.318-.254.778-.81,3.589-3.621,4.621-3.621a.648.648,0,0,1,.651.73c0,.7-1.128,1.969-1.477,2.589l.032.032,3.51-2.763c.159-.127.556-.445.746-.445.127,0,.286.381.333.445a1.361,1.361,0,0,1,.286.635c0,.27-.318.619-.492.81-1.239,1.366-1.334,1.6-1.35,1.969-.016.19.191.445.381.4.334-.08.508-.08,2.446-1.413l.1.746c-.746.587-3.017,2.446-3.907,2.446a.881.881,0,0,1-.81-.921,6.358,6.358,0,0,1,1.175-2.557l-.032-.032Z" transform="translate(-1017.377 -2311.861)" fill="url(#linear-gradient-8)"/>
            <path id="Pfad_31" data-name="Pfad 31" d="M1142.38,2319.836c-.969,1.128-2.7,2.6-4.272,2.6-1.159,0-1.683-1.032-1.715-2.064-.064-2.065,2.223-4.193,4.288-4.177.508,0,1.143.127,1.143.762,0,.778-.778,1.938-3.811,2.938l-.032.349c-.047.6.477.81.985.81,1.128,0,2.446-1.159,3.287-1.811Zm-1.953-2.541c0-.111-.079-.207-.19-.175a3.481,3.481,0,0,0-2.128,2A3.889,3.889,0,0,0,1140.427,2317.3Z" transform="translate(-1077.095 -2311.356)" fill="url(#linear-gradient-8)"/>
            <g id="Gruppe_27" data-name="Gruppe 27" transform="translate(0)">
              <path id="Pfad_32" data-name="Pfad 32" d="M770.988,2291.131c1.588.381,2.334,1.223,2.334,1.985,0,3.145-5.511,3.652-7.782,3.652-.619,0-2.541,0-2.541-.921a3.349,3.349,0,0,1,.81-1.413,4.206,4.206,0,0,1,1.366-.46c.079,0,.127.016.127.111,0,.159-.159.238-.27.3a1.793,1.793,0,0,0-.27.238v.032c5.638.207,7.194-1.429,7.194-1.667,0-.81-4.383-1.445-5.129-1.556-.794-.127-1.6-.381-1.6-1.334a5.8,5.8,0,0,1,.508-2.1c.492-.81,3.351-2.3,6.813-2.3a9.282,9.282,0,0,1,1.985.222c.365.079.413.206.413.524,0,1.175-.4,1.445-1.334,1.794a4.5,4.5,0,0,0-1.429.778.948.948,0,0,1-.4.159.222.222,0,0,1-.254-.238,3.552,3.552,0,0,1,1.159-1.112l-.032-.032c-4.081.143-5.828,1.6-5.844,1.969C766.78,2289.988,766.573,2290.1,770.988,2291.131Z" transform="translate(-763 -2285.7)" fill="url(#linear-gradient-8)"/>
              <path id="Pfad_33" data-name="Pfad 33" d="M1177.129,2299.748c-.873.905-2.35,2.493-3.716,2.493-1.159,0-1.413-1.127-1.413-2.048a7.872,7.872,0,0,1,1.731-4.7c1.4-1.715,2.89-3.192,3.4-3.192.27,0,.334.381.318.588-.111,1.508-.524,2.89-3.954,6.209a1.777,1.777,0,0,0-.111,1.1c.143.365.365.683.794.683.873,0,2.08-1.016,2.716-1.572Zm-3.255-2.112a9.621,9.621,0,0,0,2.382-3.462c-.778.381-1.667,1.794-2.414,3.43Z" transform="translate(-1107.048 -2291.252)" fill="url(#linear-gradient-8)"/>
            </g>
          </g>
        </g>
      </g>
    </g>
  </g>
</svg>
