<svg xmlns="http://www.w3.org/2000/svg" xmlns:xlink="http://www.w3.org/1999/xlink" width="60.992" height="60.76" viewBox="0 0 60.992 60.76">
  <defs>
    <filter id="Pfad_61" x="0" y="0" width="60.992" height="60.76" filterUnits="userSpaceOnUse">
      <feOffset dy="3" input="SourceAlpha"/>
      <feGaussianBlur stdDeviation="3" result="blur"/>
      <feFlood flood-opacity="0.161"/>
      <feComposite operator="in" in2="blur"/>
      <feComposite in="SourceGraphic"/>
    </filter>
    <filter id="Ellipse_12" x="4.215" y="4.155" width="52.765" height="52.765" filterUnits="userSpaceOnUse">
      <feOffset dy="3" input="SourceAlpha"/>
      <feGaussianBlur stdDeviation="3" result="blur-2"/>
      <feFlood flood-opacity="0.161"/>
      <feComposite operator="in" in2="blur-2"/>
      <feComposite in="SourceGraphic"/>
    </filter>
    <filter id="Ellipse_13" x="8.38" y="8.32" width="44.435" height="44.435" filterUnits="userSpaceOnUse">
      <feOffset dy="3" input="SourceAlpha"/>
      <feGaussianBlur stdDeviation="3" result="blur-3"/>
      <feFlood flood-opacity="0.161"/>
      <feComposite operator="in" in2="blur-3"/>
      <feComposite in="SourceGraphic"/>
    </filter>
    <filter id="Ellipse_14" x="12.78" y="12.72" width="35.636" height="35.636" filterUnits="userSpaceOnUse">
      <feOffset dy="3" input="SourceAlpha"/>
      <feGaussianBlur stdDeviation="3" result="blur-4"/>
      <feFlood flood-opacity="0.161"/>
      <feComposite operator="in" in2="blur-4"/>
      <feComposite in="SourceGraphic"/>
    </filter>
    <filter id="Ellipse_15" x="17.022" y="16.962" width="27.151" height="27.151" filterUnits="userSpaceOnUse">
      <feOffset dy="3" input="SourceAlpha"/>
      <feGaussianBlur stdDeviation="3" result="blur-5"/>
      <feFlood flood-opacity="0.161"/>
      <feComposite operator="in" in2="blur-5"/>
      <feComposite in="SourceGraphic"/>
    </filter>
  </defs>
  <g id="LED_WhiteState" transform="translate(-404.028 -101.424)">
    <g id="Gruppe_35" data-name="Gruppe 35" transform="translate(411 105)">
      <circle id="Ellipse_11" data-name="Ellipse 11" cx="23.594" cy="23.594" r="23.594" transform="translate(0)" fill="#e3e3e3"/>
      <g id="Gruppe_34" data-name="Gruppe 34" transform="translate(2.028 2.424)" opacity="0.48">
        <g transform="matrix(1, 0, 0, 1, -9, -6)" filter="url(#Pfad_61)">
          <path id="Pfad_61-2" data-name="Pfad 61" d="M2195.973,1014.866l-2.074,2.043,1.608,2.427-2.453,1.567,1.065,2.709-2.727,1.019.477,2.872-2.879.43-.128,2.908-2.906-.175-.728,2.819-2.806-.775-1.3,2.6-2.582-1.345-1.816,2.275-2.246-1.852-2.246,1.852-1.816-2.275-2.582,1.344-1.3-2.6-2.806.774-.728-2.819-2.906.175-.128-2.908-2.879-.43.477-2.872-2.727-1.019,1.065-2.709-2.454-1.567,1.608-2.427-2.074-2.043,2.074-2.043-1.608-2.427,2.454-1.567-1.065-2.709,2.727-1.019-.477-2.872,2.88-.43.128-2.908,2.906.175.728-2.819,2.806.775,1.3-2.6,2.582,1.344,1.816-2.275,2.246,1.852,2.246-1.852,1.816,2.275,2.582-1.344,1.3,2.6,2.806-.774.728,2.819,2.906-.175.128,2.908,2.88.43-.477,2.872,2.727,1.019-1.065,2.709,2.453,1.567-1.609,2.427Z" transform="translate(-2143.98 -987.49)" fill="#fff"/>
        </g>
      </g>
      <g transform="matrix(1, 0, 0, 1, -6.97, -3.58)" filter="url(#Ellipse_12)">
        <circle id="Ellipse_12-2" data-name="Ellipse 12" cx="17.383" cy="17.383" r="17.383" transform="translate(13.21 10.16)" fill="#fff" opacity="0.36"/>
      </g>
      <g transform="matrix(1, 0, 0, 1, -6.97, -3.58)" filter="url(#Ellipse_13)">
        <circle id="Ellipse_13-2" data-name="Ellipse 13" cx="13.217" cy="13.217" r="13.217" transform="translate(17.38 14.32)" fill="#fff" opacity="0.36"/>
      </g>
      <g transform="matrix(1, 0, 0, 1, -6.97, -3.58)" filter="url(#Ellipse_14)">
        <circle id="Ellipse_14-2" data-name="Ellipse 14" cx="8.818" cy="8.818" r="8.818" transform="translate(21.78 18.72)" fill="#fff" opacity="0.36"/>
      </g>
      <g transform="matrix(1, 0, 0, 1, -6.97, -3.58)" filter="url(#Ellipse_15)">
        <circle id="Ellipse_15-2" data-name="Ellipse 15" cx="4.576" cy="4.576" r="4.576" transform="translate(26.02 22.96)" fill="#fff" opacity="0.36"/>
      </g>
    </g>
  </g>
</svg>
