<svg xmlns="http://www.w3.org/2000/svg" xmlns:xlink="http://www.w3.org/1999/xlink" width="68.188" height="68.188" viewBox="0 0 68.188 68.188">
  <defs>
    <filter id="Pfad_77" x="0" y="0" width="68.188" height="68.188" filterUnits="userSpaceOnUse">
      <feOffset input="SourceAlpha"/>
      <feGaussianBlur stdDeviation="3.5" result="blur"/>
      <feFlood flood-color="#ff5400"/>
      <feComposite operator="in" in2="blur"/>
      <feComposite in="SourceGraphic"/>
    </filter>
    <radialGradient id="radial-gradient" cx="0.5" cy="0.5" r="0.5" gradientTransform="translate(0)" gradientUnits="objectBoundingBox">
      <stop offset="0" stop-color="#be3d00"/>
      <stop offset="0.401" stop-color="#be3e02" stop-opacity="0.996"/>
      <stop offset="0.545" stop-color="#c0440a" stop-opacity="0.992"/>
      <stop offset="0.648" stop-color="#c34f19" stop-opacity="0.976"/>
      <stop offset="0.731" stop-color="#c85e2e" stop-opacity="0.957"/>
      <stop offset="0.802" stop-color="#ce724a" stop-opacity="0.933"/>
      <stop offset="0.866" stop-color="#d68b6c" stop-opacity="0.902"/>
      <stop offset="0.923" stop-color="#dfa894" stop-opacity="0.867"/>
      <stop offset="0.973" stop-color="#e9c9c2" stop-opacity="0.824"/>
      <stop offset="1" stop-color="#f0dede" stop-opacity="0.8"/>
    </radialGradient>
    <radialGradient id="radial-gradient-2" cx="0.5" cy="0.5" r="0.5" gradientTransform="translate(0)" gradientUnits="objectBoundingBox">
      <stop offset="0" stop-color="#be3d00"/>
      <stop offset="0.337" stop-color="#be3e02" stop-opacity="0.996"/>
      <stop offset="0.488" stop-color="#c0450b" stop-opacity="0.988"/>
      <stop offset="0.6" stop-color="#c4501b" stop-opacity="0.976"/>
      <stop offset="0.695" stop-color="#c96132" stop-opacity="0.957"/>
      <stop offset="0.777" stop-color="#cf764f" stop-opacity="0.929"/>
      <stop offset="0.852" stop-color="#d79073" stop-opacity="0.898"/>
      <stop offset="0.921" stop-color="#e1af9e" stop-opacity="0.859"/>
      <stop offset="0.982" stop-color="#ecd2ce" stop-opacity="0.816"/>
      <stop offset="1" stop-color="#f0dede" stop-opacity="0.8"/>
    </radialGradient>
    <radialGradient id="radial-gradient-3" cx="0.5" cy="0.5" r="0.5" gradientUnits="objectBoundingBox">
      <stop offset="0" stop-color="#be3d00"/>
      <stop offset="0.4" stop-color="#be3e02" stop-opacity="0.996"/>
      <stop offset="0.545" stop-color="#c0440a" stop-opacity="0.992"/>
      <stop offset="0.647" stop-color="#c34f19" stop-opacity="0.976"/>
      <stop offset="0.731" stop-color="#c85e2e" stop-opacity="0.957"/>
      <stop offset="0.802" stop-color="#ce724a" stop-opacity="0.933"/>
      <stop offset="0.865" stop-color="#d68b6c" stop-opacity="0.902"/>
      <stop offset="0.922" stop-color="#dfa894" stop-opacity="0.867"/>
      <stop offset="0.972" stop-color="#e9c9c2" stop-opacity="0.824"/>
      <stop offset="0.999" stop-color="#f0dede" stop-opacity="0.8"/>
    </radialGradient>
    <radialGradient id="radial-gradient-4" cx="0.5" cy="0.5" r="0.5" gradientTransform="translate(0)" gradientUnits="objectBoundingBox">
      <stop offset="0" stop-color="#be3d00"/>
      <stop offset="0" stop-color="#e00000"/>
      <stop offset="0.365" stop-color="#be3e02" stop-opacity="0.996"/>
      <stop offset="0.513" stop-color="#c0450b" stop-opacity="0.988"/>
      <stop offset="0.621" stop-color="#c3501a" stop-opacity="0.976"/>
      <stop offset="0.711" stop-color="#c86030" stop-opacity="0.957"/>
      <stop offset="0.788" stop-color="#cf744c" stop-opacity="0.929"/>
      <stop offset="0.858" stop-color="#d78e6f" stop-opacity="0.898"/>
      <stop offset="0.921" stop-color="#e0ac99" stop-opacity="0.863"/>
      <stop offset="0.978" stop-color="#ebcec8" stop-opacity="0.82"/>
      <stop offset="1" stop-color="#f0dede" stop-opacity="0.8"/>
    </radialGradient>
  </defs>
  <g id="LED_RedState" transform="translate(-400.5 -94.5)">
    <g id="Gruppe_35" data-name="Gruppe 35" transform="translate(411 105)">
      <g transform="matrix(1, 0, 0, 1, -10.5, -10.5)" filter="url(#Pfad_77)">
        <path id="Pfad_77-2" data-name="Pfad 77" d="M23.594,0A23.594,23.594,0,1,1,0,23.594,23.594,23.594,0,0,1,23.594,0Z" transform="translate(10.5 10.5)" fill="#cb5b22"/>
      </g>
      <g id="Gruppe_34" data-name="Gruppe 34" transform="translate(2.028 2.424)" opacity="0.48">
        <path id="Pfad_61" data-name="Pfad 61" d="M2195.973,1014.866l-2.074,2.043,1.608,2.427-2.453,1.567,1.065,2.709-2.727,1.019.477,2.872-2.879.43-.128,2.908-2.906-.175-.728,2.819-2.806-.775-1.3,2.6-2.582-1.345-1.816,2.275-2.246-1.852-2.246,1.852-1.816-2.275-2.582,1.344-1.3-2.6-2.806.774-.728-2.819-2.906.175-.128-2.908-2.879-.43.477-2.872-2.727-1.019,1.065-2.709-2.454-1.567,1.608-2.427-2.074-2.043,2.074-2.043-1.608-2.427,2.454-1.567-1.065-2.709,2.727-1.019-.477-2.872,2.88-.43.128-2.908,2.906.175.728-2.819,2.806.775,1.3-2.6,2.582,1.344,1.816-2.275,2.246,1.852,2.246-1.852,1.816,2.275,2.582-1.344,1.3,2.6,2.806-.774.728,2.819,2.906-.175.128,2.908,2.88.43-.477,2.872,2.727,1.019-1.065,2.709,2.453,1.567-1.609,2.427Z" transform="translate(-2152.98 -993.486)" fill="#ffabad"/>
      </g>
      <circle id="Ellipse_12" data-name="Ellipse 12" cx="17.383" cy="17.383" r="17.383" transform="translate(6.243 6.579)" opacity="0.36" fill="url(#radial-gradient)"/>
      <circle id="Ellipse_13" data-name="Ellipse 13" cx="13.217" cy="13.217" r="13.217" transform="translate(10.408 10.744)" opacity="0.36" fill="url(#radial-gradient-2)"/>
      <circle id="Ellipse_14" data-name="Ellipse 14" cx="8.818" cy="8.818" r="8.818" transform="translate(14.808 15.144)" opacity="0.36" fill="url(#radial-gradient-3)"/>
      <circle id="Ellipse_15" data-name="Ellipse 15" cx="4.576" cy="4.576" r="4.576" transform="translate(19.05 19.386)" opacity="0.36" fill="url(#radial-gradient-4)"/>
    </g>
  </g>
</svg>
