<svg xmlns="http://www.w3.org/2000/svg" xmlns:xlink="http://www.w3.org/1999/xlink" width="65" height="47.7" viewBox="0 0 65 47.7">
  <defs>
    <clipPath id="clip-path">
      <rect id="Mask" width="55" height="28" rx="14" fill="#eae7c9" stroke="#707070" stroke-width="1"/>
    </clipPath>
    <filter id="Pfad_81" x="37.49" y="11.854" width="26.092" height="26.549" filterUnits="userSpaceOnUse">
      <feOffset input="SourceAlpha"/>
      <feGaussianBlur stdDeviation="2.5" result="blur"/>
      <feFlood flood-color="#f94f32"/>
      <feComposite operator="in" in2="blur"/>
      <feComposite in="SourceGraphic"/>
    </filter>
    <linearGradient id="linear-gradient" x1="0.105" y1="0.175" x2="0.845" y2="0.857" gradientUnits="objectBoundingBox">
      <stop offset="0" stop-color="#ffffec"/>
      <stop offset="1" stop-color="#c1c1a1"/>
    </linearGradient>
    <filter id="Ellipse_18" x="0" y="0" width="43.2" height="43.2" filterUnits="userSpaceOnUse">
      <feOffset dx="-3" dy="-3" input="SourceAlpha"/>
      <feGaussianBlur stdDeviation="3" result="blur-2"/>
      <feFlood flood-color="#fff" flood-opacity="0.282"/>
      <feComposite operator="in" in2="blur-2"/>
      <feComposite in="SourceGraphic"/>
    </filter>
    <linearGradient id="linear-gradient-2" x1="0.105" y1="0.175" x2="0.845" y2="0.857" gradientUnits="objectBoundingBox">
      <stop offset="0" stop-color="#ffffef"/>
      <stop offset="1" stop-color="#e0e0c6"/>
    </linearGradient>
    <filter id="Ellipse_16" x="7.5" y="7.5" width="40.2" height="40.2" filterUnits="userSpaceOnUse">
      <feOffset dx="3" dy="3" input="SourceAlpha"/>
      <feGaussianBlur stdDeviation="2.5" result="blur-3"/>
      <feFlood flood-opacity="0.2"/>
      <feComposite operator="in" in2="blur-3"/>
      <feComposite in="SourceGraphic"/>
    </filter>
  </defs>
  <g id="Bypass_Off" transform="translate(-279 -859.638)">
    <g id="Bypass_BG" transform="translate(-69 443)">
      <g id="Toggle_button_off" data-name="Toggle button off" transform="translate(196.451 -100.274)">
        <g id="Check_button_pressed" data-name="Check button pressed" transform="translate(161.549 527.274)" clip-path="url(#clip-path)">
          <g id="Light" transform="translate(2.738 -5.301)" fill="#eae7c9" stroke="#fff" stroke-width="3">
            <rect width="52.599" height="33.575" rx="8" stroke="none"/>
            <rect x="1.5" y="1.5" width="49.599" height="30.575" rx="6.5" fill="none"/>
          </g>
          <g id="Dark" transform="translate(0.434 -0.274)" fill="#eae7c9" stroke="rgba(88,108,138,0.5)" stroke-width="3">
            <rect width="57.264" height="32.433" rx="16.217" stroke="none"/>
            <rect x="1.5" y="1.5" width="54.264" height="29.433" rx="14.717" fill="none"/>
          </g>
        </g>
      </g>
      <g transform="matrix(1, 0, 0, 1, 348, 416.64)" filter="url(#Pfad_81)">
        <path id="Pfad_81-2" data-name="Pfad 81" d="M6.539,6.969a.476.476,0,0,0,.486-.516V1.514a.49.49,0,1,0-.979,0V6.453A.48.48,0,0,0,6.539,6.969Zm0,5.572A5.584,5.584,0,0,0,12.082,7a5.5,5.5,0,0,0-1.869-4.119.5.5,0,1,0-.656.738,4.536,4.536,0,0,1-3.018,7.916A4.536,4.536,0,0,1,3.516,3.617a.493.493,0,1,0-.65-.738A5.505,5.505,0,0,0,.99,7,5.59,5.59,0,0,0,6.539,12.541Z" transform="translate(44 18.36)" fill="#f94f32"/>
      </g>
    </g>
    <g id="Knopf_Bypass" transform="translate(-253.626 620.012)">
      <g transform="matrix(1, 0, 0, 1, 532.63, 239.63)" filter="url(#Ellipse_18)">
        <circle id="Ellipse_18-2" data-name="Ellipse 18" cx="12.6" cy="12.6" r="12.6" transform="translate(12 12)" fill="url(#linear-gradient)"/>
      </g>
      <g transform="matrix(1, 0, 0, 1, 532.63, 239.63)" filter="url(#Ellipse_16)">
        <circle id="Ellipse_16-2" data-name="Ellipse 16" cx="12.6" cy="12.6" r="12.6" transform="translate(12 12)" fill="url(#linear-gradient-2)"/>
      </g>
    </g>
  </g>
</svg>
