<svg xmlns="http://www.w3.org/2000/svg" xmlns:xlink="http://www.w3.org/1999/xlink" width="71.198" height="45.561" viewBox="0 0 71.198 45.561">
  <defs>
    <clipPath id="clip-path">
      <rect id="Mask" width="55" height="28" rx="14" fill="#fffef5" stroke="#707070" stroke-width="1"/>
    </clipPath>
    <filter id="Pfad_79" x="38.098" y="14.801" width="24.708" height="20.76" filterUnits="userSpaceOnUse">
      <feOffset input="SourceAlpha"/>
      <feGaussianBlur stdDeviation="2" result="blur"/>
      <feFlood flood-color="#f4ef84"/>
      <feComposite operator="in" in2="blur"/>
      <feComposite in="SourceGraphic"/>
    </filter>
    <linearGradient id="linear-gradient" x1="0.105" y1="0.175" x2="0.845" y2="0.857" gradientUnits="objectBoundingBox">
      <stop offset="0" stop-color="#ffffec"/>
      <stop offset="1" stop-color="#c1c1a1"/>
    </linearGradient>
    <filter id="Ellipse_18" x="0" y="0" width="43.199" height="43.199" filterUnits="userSpaceOnUse">
      <feOffset dx="-3" dy="-3" input="SourceAlpha"/>
      <feGaussianBlur stdDeviation="3" result="blur-2"/>
      <feFlood flood-color="#fff" flood-opacity="0.282"/>
      <feComposite operator="in" in2="blur-2"/>
      <feComposite in="SourceGraphic"/>
    </filter>
    <linearGradient id="linear-gradient-2" x1="0.105" y1="0.175" x2="0.845" y2="0.857" gradientUnits="objectBoundingBox">
      <stop offset="0" stop-color="#ffffec"/>
      <stop offset="1" stop-color="#c3c3a6"/>
    </linearGradient>
    <filter id="Ellipse_16" x="9.5" y="9.5" width="34.199" height="34.199" filterUnits="userSpaceOnUse">
      <feOffset dx="2" dy="2" input="SourceAlpha"/>
      <feGaussianBlur stdDeviation="1.5" result="blur-3"/>
      <feFlood flood-opacity="0.333"/>
      <feComposite operator="in" in2="blur-3"/>
      <feComposite in="SourceGraphic"/>
    </filter>
  </defs>
  <g id="LP" transform="translate(-213.802 -252.439)">
    <g id="Schalter_LP" data-name="Schalter LP" transform="translate(-134 -164)">
      <g id="Toggle_button_off" data-name="Toggle button off" transform="translate(196.451 -100.274)">
        <g id="Check_button_pressed" data-name="Check button pressed" transform="translate(161.549 527.274)" clip-path="url(#clip-path)">
          <g id="Light" transform="translate(2.738 -5.301)" fill="#fffef5" stroke="#fff" stroke-width="3">
            <rect width="52.599" height="33.575" rx="8" stroke="none"/>
            <rect x="1.5" y="1.5" width="49.599" height="30.575" rx="6.5" fill="none"/>
          </g>
          <g id="Dark" transform="translate(0.434 -0.274)" fill="#fffef5" stroke="rgba(88,108,138,0.5)" stroke-width="3">
            <rect width="57.264" height="32.433" rx="16.217" stroke="none"/>
            <rect x="1.5" y="1.5" width="54.264" height="29.433" rx="14.717" fill="none"/>
          </g>
        </g>
      </g>
      <g transform="matrix(1, 0, 0, 1, 347.8, 416.44)" filter="url(#Pfad_79)">
        <path id="Pfad_79-2" data-name="Pfad 79" d="M5.94,0V-1.62H2.82V-8.76H.9V0Zm7.668-6.18c0-1.644-1.248-2.58-3.2-2.58H7.5V0H9.42V-3.48H10.4C12.384-3.48,13.608-4.524,13.608-6.18Zm-1.92.036c0,.708-.42,1.044-1.284,1.044H9.42V-7.14H10.4C11.256-7.14,11.688-6.864,11.688-6.144Z" transform="translate(43.2 29.56)" fill="#171717" opacity="0.748"/>
      </g>
    </g>
    <g id="Knopf_LP" transform="translate(-318.824 12.814)">
      <g transform="matrix(1, 0, 0, 1, 532.63, 239.63)" filter="url(#Ellipse_18)">
        <circle id="Ellipse_18-2" data-name="Ellipse 18" cx="12.599" cy="12.599" r="12.599" transform="translate(12 12)" fill="url(#linear-gradient)"/>
      </g>
      <g transform="matrix(1, 0, 0, 1, 532.63, 239.63)" filter="url(#Ellipse_16)">
        <circle id="Ellipse_16-2" data-name="Ellipse 16" cx="12.599" cy="12.599" r="12.599" transform="translate(12 12)" fill="url(#linear-gradient-2)"/>
      </g>
    </g>
    <path id="Ausschluss_1" data-name="Ausschluss 1" d="M-1989-24h-68V-67h68v43Zm-47-35a13.908,13.908,0,0,0-9.9,4.1A13.909,13.909,0,0,0-2050-45a13.909,13.909,0,0,0,4.1,9.9A13.908,13.908,0,0,0-2036-31h27a13.907,13.907,0,0,0,9.9-4.1A13.909,13.909,0,0,0-1995-45a13.909,13.909,0,0,0-4.1-9.9A13.907,13.907,0,0,0-2009-59Z" transform="translate(2274 322)" fill="#fffde5" opacity="0.522"/>
  </g>
</svg>
