<?xml version="1.0" encoding="UTF-8" standalone="no"?>
<svg
   xmlns:dc="http://purl.org/dc/elements/1.1/"
   xmlns:cc="http://creativecommons.org/ns#"
   xmlns:rdf="http://www.w3.org/1999/02/22-rdf-syntax-ns#"
   xmlns:svg="http://www.w3.org/2000/svg"
   xmlns="http://www.w3.org/2000/svg"
   xmlns:sodipodi="http://sodipodi.sourceforge.net/DTD/sodipodi-0.dtd"
   xmlns:inkscape="http://www.inkscape.org/namespaces/inkscape"
   width="24"
   height="24"
   preserveAspectRatio="xMidYMid meet"
   viewBox="0 0 24 24"
   style="-ms-transform: rotate(360deg); -webkit-transform: rotate(360deg); transform: rotate(360deg);"
   version="1.1"
   id="svg837"
   sodipodi:docname="settings-option.svg"
   inkscape:version="1.0.1 (c497b03c, 2020-09-10)">
  <metadata
     id="metadata843">
    <rdf:RDF>
      <cc:Work
         rdf:about="">
        <dc:format>image/svg+xml</dc:format>
        <dc:type
           rdf:resource="http://purl.org/dc/dcmitype/StillImage" />
      </cc:Work>
    </rdf:RDF>
  </metadata>
  <defs
     id="defs841" />
  <sodipodi:namedview
     pagecolor="#ffffff"
     bordercolor="#666666"
     borderopacity="1"
     objecttolerance="10"
     gridtolerance="10"
     guidetolerance="10"
     inkscape:pageopacity="0"
     inkscape:pageshadow="2"
     inkscape:window-width="1650"
     inkscape:window-height="1035"
     id="namedview839"
     showgrid="false"
     inkscape:zoom="24.166667"
     inkscape:cx="1.386207"
     inkscape:cy="1.0826087"
     inkscape:window-x="0"
     inkscape:window-y="23"
     inkscape:window-maximized="0"
     inkscape:current-layer="svg837"
     inkscape:document-rotation="0" />
  <path
     fill="none"
     stroke="#626262"
     stroke-width="2"
     d="M 12,9 V 1.4482758 0 m 3,12 h 9 M 0,12 h 9 m 3,12 v -9 m 0,6 c 4.970566,0 8.999996,-4.029437 8.999996,-9 0,-4.9705626 -4.02943,-9 -8.999996,-9 -4.9705661,0 -8.9999961,4.0294374 -8.9999961,9 0,4.970563 4.02943,9 8.9999961,9 z M 3.5,8.5 1,7.5 m 19.5,8 2.5,1 M 3,3 5.5,5.5 M 3,3 5.5,5.5 M 18,18 20.5,20.5 M 20.5,3 18,5.5 M 5.5,18 3,20.5 M 12,15 c 3.999998,0 3.999998,-6 0,-6 -3.9999983,0 -3.9999983,6 0,6 z m 8.5,-6.5 2.5,-1 m -7.5,-4 1,-2.5 m -1,19.5 1,2.5 m -8,-2.5 -1,2.5 m -4,-7.5 -2.5,1 M 8.5,3.5 7.5,1"
     id="path833"
     sodipodi:nodetypes="cccccccccsssssccccccccccccccssscccccccccccc"
     style="stroke:#ffffff;stroke-opacity:1" />
  <rect
     x="0"
     y="0"
     width="24"
     height="24"
     fill="rgba(0, 0, 0, 0)"
     id="rect835"
     style="fill:none" />
</svg>
